# xmcd
#
# Track frame offsets: 
#        150
#        9587
#        28320
#        40442
#        51459
#        64575
#        83783
#        95537
#        110780
#        121593
#        133570
#        151481
#        168675
#
# Disc length: 3121 seconds
#
# Revision: 0
# Processed by: cddbd v1.5.2PL0 Copyright (c) Steve Scherf et al.
# Submitted via: ExactAudioCopy v0.99pb4
#
DISCID=b20c2f0d
DTITLE=Damnable - Completely Devoted
DYEAR=2001
DGENRE=Death Metal
TTITLE0=A Farewell To Reality
TTITLE1=Vertigo
TTITLE2=Completely Devoted
TTITLE3=Street News
TTITLE4=Beyond Reincarnation
TTITLE5=They Will Never Destroy Mountains
TTITLE6=Nothing Excuses
TTITLE7=I Wish You A Nice Evening?
TTITLE8=Futuristic Trial of Mankind
TTITLE9=Damnable 1
TTITLE10=Unreal Telepathy
TTITLE11=Light Song
TTITLE12=Data
EXTD=
EXTT0=
EXTT1=
EXTT2=
EXTT3=
EXTT4=
EXTT5=
EXTT6=
EXTT7=
EXTT8=
EXTT9=
EXTT10=
EXTT11=
EXTT12=
PLAYORDER=
